<svg width="32" height="32" viewBox="0 0 32 32" fill="none" xmlns="http://www.w3.org/2000/svg">
  <rect width="32" height="32" rx="8" fill="#003478"/>
  <path d="M16 4C9.373 4 4 9.373 4 16s5.373 12 12 12 12-5.373 12-12S22.627 4 16 4zm-2 22.93c-5.25-.65-9-5.13-9-9.93 0-.83.11-1.61.28-2.39L12 20v1.33c0 1.47 1.2 2.67 2.67 2.67v2.93zm8.93-3.39c-.35-1.08-1.33-1.85-2.53-1.85h-1.33v-4c0-.73-.6-1.33-1.33-1.33H10.67v-2.67h2.67c.73 0 1.33-.6 1.33-1.33V9.33h2.67c1.47 0 2.67-1.2 2.67-2.67v-.55c3.91 1.59 6.67 5.41 6.67 9.89 0 2.77-1.07 5.29-2.8 7.19z" fill="white"/>
</svg>
